<svg width="27" height="21" viewBox="0 0 27 21" fill="none" xmlns="http://www.w3.org/2000/svg">
<path d="M17.1391 7.071H15.7148V13.9222H17.1391C19.0223 13.9222 19.8745 12.7967 19.8745 10.5135C19.8745 8.22862 19.0139 7.071 17.1391 7.071Z" fill="#303030"/>
<path d="M0 3.75C0 2.85489 0.355579 1.99645 0.988515 1.36351C1.62145 0.730579 2.47989 0.375 3.375 0.375H23.625C24.5201 0.375 25.3785 0.730579 26.0115 1.36351C26.6444 1.99645 27 2.85489 27 3.75V17.25C27 18.1451 26.6444 19.0035 26.0115 19.6365C25.3785 20.2694 24.5201 20.625 23.625 20.625H3.375C2.47989 20.625 1.62145 20.2694 0.988515 19.6365C0.355579 19.0035 0 18.1451 0 17.25V3.75ZM8.748 11.121C9.83813 11.121 10.5283 11.7589 10.5367 12.6397C10.5503 13.5459 9.81619 14.1906 8.70413 14.1906C7.695 14.1838 6.95419 13.6421 6.90188 12.9148H5.0625C5.11312 14.4572 6.39731 15.7633 8.69569 15.7633C10.7882 15.7633 12.5516 14.6496 12.5297 12.7292C12.5078 11.121 11.2691 10.4004 10.3494 10.3127V10.2081C11.0919 10.0899 12.2479 9.31875 12.2192 7.88775C12.1973 6.35888 10.8692 5.23838 8.75475 5.24681C6.54413 5.25525 5.30719 6.48544 5.25488 8.06494H7.11619C7.15331 7.40513 7.7625 6.79763 8.69569 6.79763C9.59344 6.79763 10.2617 7.3545 10.2617 8.16956C10.2684 8.97787 9.61537 9.57862 8.69569 9.57862H7.62919V11.121H8.748ZM13.7126 15.5625H17.4066C20.4609 15.5625 21.9375 13.6944 21.9375 10.4747C21.9375 7.27856 20.4846 5.43919 17.4066 5.43919H13.7126V15.5625Z" fill="#303030"/>
</svg>
