<svg width="110" height="27" viewBox="0 0 110 27" fill="none" xmlns="http://www.w3.org/2000/svg">
<path d="M100.139 10.071H98.7148V16.9222H100.139C102.022 16.9222 102.875 15.7967 102.875 13.5135C102.875 11.2286 102.014 10.071 100.139 10.071Z" fill="#303030"/>
<path d="M83 6.75C83 5.85489 83.3556 4.99645 83.9885 4.36351C84.6214 3.73058 85.4799 3.375 86.375 3.375H106.625C107.52 3.375 108.379 3.73058 109.011 4.36351C109.644 4.99645 110 5.85489 110 6.75V20.25C110 21.1451 109.644 22.0035 109.011 22.6365C108.379 23.2694 107.52 23.625 106.625 23.625H86.375C85.4799 23.625 84.6214 23.2694 83.9885 22.6365C83.3556 22.0035 83 21.1451 83 20.25V6.75ZM91.748 14.121C92.8381 14.121 93.5283 14.7589 93.5367 15.6397C93.5503 16.5459 92.8162 17.1906 91.7041 17.1906C90.695 17.1838 89.9542 16.6421 89.9019 15.9148H88.0625C88.1131 17.4572 89.3973 18.7633 91.6957 18.7633C93.7882 18.7633 95.5516 17.6496 95.5297 15.7292C95.5078 14.121 94.2691 13.4004 93.3494 13.3127V13.2081C94.0919 13.0899 95.2479 12.3188 95.2192 10.8878C95.1973 9.35888 93.8692 8.23838 91.7548 8.24681C89.5441 8.25525 88.3072 9.48544 88.2549 11.0649H90.1162C90.1533 10.4051 90.7625 9.79763 91.6957 9.79763C92.5934 9.79763 93.2617 10.3545 93.2617 11.1696C93.2684 11.9779 92.6154 12.5786 91.6957 12.5786H90.6292V14.121H91.748ZM96.7126 18.5625H100.407C103.461 18.5625 104.938 16.6944 104.938 13.4747C104.938 10.2786 103.485 8.43919 100.407 8.43919H96.7126V18.5625Z" fill="#303030"/>
<path d="M1.232 7.608V19H3.232V14.616H6.448C8.752 14.616 10.144 13.24 10.144 11.08C10.144 8.696 8.528 7.608 6.176 7.608H1.232ZM3.232 9.272H5.84C7.104 9.272 8.192 9.656 8.192 11.128C8.192 12.472 7.312 13 6.016 13H3.232V9.272ZM11.8559 7.608V19H13.8399V14.296H16.4959C18.4319 14.296 18.8799 14.936 18.9919 16.728C19.0559 17.784 19.0719 18.568 19.3599 19H21.5039C21.0399 18.488 21.0079 17.528 20.8959 16.168C20.7999 15 20.6559 13.896 19.1999 13.576C20.3999 13.16 21.0879 12.152 21.0879 10.776C21.0879 8.424 19.2959 7.608 17.2479 7.608H11.8559ZM13.8399 9.24H16.7359C17.9359 9.24 19.1039 9.48 19.1039 10.984C19.1039 12.616 17.7919 12.808 16.4799 12.808H13.8399V9.24ZM28.0495 7.336C24.5615 7.336 22.5455 9.96 22.5455 13.304C22.5455 16.856 24.7535 19.272 28.0175 19.272C31.2655 19.272 33.4895 16.856 33.4895 13.304C33.4895 9.768 31.2655 7.336 28.0495 7.336ZM28.0175 9.016C30.1295 9.016 31.4735 10.68 31.4735 13.288C31.4735 15.896 30.1295 17.592 28.0495 17.592C25.9055 17.592 24.5615 15.928 24.5615 13.272C24.5615 10.696 25.9215 9.016 28.0175 9.016ZM35.2938 7.608V19H39.7418C41.5338 19 42.4938 18.68 43.4378 17.736C44.6698 16.504 45.0378 14.808 45.0378 13.112C45.0378 11.288 44.4458 9.752 43.3578 8.776C42.2698 7.8 41.0378 7.608 39.6298 7.608H35.2938ZM37.2778 9.304H39.5018C41.9978 9.304 43.0378 10.872 43.0378 13.208C43.0378 15.544 42.3018 17.32 39.6298 17.32H37.2778V9.304ZM56.0886 7.608H54.0886V14.328C54.0886 16.264 53.7526 17.576 51.4806 17.576C49.6886 17.576 48.7446 16.712 48.7446 14.952V7.608H46.7446V14.552C46.7446 17.704 48.2166 19.224 51.4486 19.224C54.5206 19.224 56.0886 17.72 56.0886 14.584V7.608ZM68.1475 14.664H66.1475C65.9395 16.344 65.0915 17.576 63.2355 17.576C60.8035 17.576 59.8755 15.416 59.8755 13.304C59.8755 11.208 60.8515 9.048 63.2515 9.048C64.7235 9.048 65.7955 9.864 66.0675 11.24H68.0515C67.6675 8.6 65.5555 7.352 63.2835 7.352C59.8275 7.352 57.8595 10.072 57.8595 13.304C57.8595 16.904 59.9715 19.272 63.1875 19.272C66.0355 19.272 67.9395 17.432 68.1475 14.664ZM78.1104 7.608H68.8464V9.336H72.4784V19H74.4784V9.336H78.1104V7.608Z" fill="#303030"/>
</svg>
